<svg xmlns="http://www.w3.org/2000/svg" viewBox="0 0 200 217" fill="none">
  <defs>
    <radialGradient id="corona" cx="50%" cy="50%" r="50%">
      <stop offset="0.35" stop-color="#5ee7d6" stop-opacity="0.55"/>
      <stop offset="0.72" stop-color="#45e0cf" stop-opacity="0.35"/>
      <stop offset="1" stop-color="#45e0cf" stop-opacity="0"/>
    </radialGradient>
    <radialGradient id="starcore" cx="50%" cy="50%" r="60%">
      <stop offset="0" stop-color="#ffffff"/>
      <stop offset="0.28" stop-color="#ffe6a3"/>
      <stop offset="0.6" stop-color="#8fe6df"/>
      <stop offset="1" stop-color="#45e0cf"/>
    </radialGradient>
  </defs>
  <circle cx="100.00" cy="91.92" r="96.6" fill="url(#corona)"/>
  <circle cx="100.00" cy="91.92" r="60.5" fill="url(#starcore)"/>
  <polygon points="22.58,65.02 22.58,73.53 41.01,39.70 41.01,33.41" fill="#23B5C9" stroke="#1D9CCB" stroke-width="0.5" stroke-linejoin="round"/>
  <polygon points="177.42,73.53 177.42,65.02 158.99,33.41 158.99,39.70" fill="#4C196E" stroke="#1D9CCB" stroke-width="0.5" stroke-linejoin="round"/>
  <polygon points="43.81,30.52 43.81,36.81 75.86,15.61 75.86,13.18" fill="#28CDC5" stroke="#1D9CCB" stroke-width="0.5" stroke-linejoin="round"/>
  <polygon points="156.19,36.81 156.19,30.52 124.14,13.18 124.14,15.61" fill="#1D83CA" stroke="#1D9CCB" stroke-width="0.5" stroke-linejoin="round"/>
  <polygon points="105.39,17.85 114.73,16.64 120.13,14.54 120.13,12.11 114.73,10.01 105.39,8.80 94.61,8.80 85.27,10.01 79.87,12.11 79.87,14.54 85.27,16.64 94.61,17.85" fill="#23B5C9" stroke="#1D9CCB" stroke-width="0.5" stroke-linejoin="round"/>
  <polygon points="83.26,173.70 92.60,174.92 84.01,162.85 59.80,159.71" fill="#4C196E" stroke="#1D9CCB" stroke-width="0.5" stroke-linejoin="round"/>
  <polygon points="107.40,174.92 116.74,173.70 140.20,159.71 115.99,162.85" fill="#4C196E" stroke="#1D9CCB" stroke-width="0.5" stroke-linejoin="round"/>
  <polygon points="94.61,175.04 105.39,175.04 113.98,162.98 86.02,162.98" fill="#4C196E" stroke="#1D9CCB" stroke-width="0.5" stroke-linejoin="round"/>
  <polygon points="41.92,151.36 55.90,156.81 42.41,127.12 23.49,119.75" fill="#484DA6" stroke="#1D9CCB" stroke-width="0.5" stroke-linejoin="round"/>
  <polygon points="144.10,156.81 158.08,151.36 176.51,119.75 157.59,127.12" fill="#4C196E" stroke="#1D9CCB" stroke-width="0.5" stroke-linejoin="round"/>
  <polygon points="44.35,37.26 58.33,42.71 81.79,18.16 76.39,16.06" fill="#4DE0B4" stroke="#1D9CCB" stroke-width="0.5" stroke-linejoin="round"/>
  <polygon points="141.67,42.71 155.65,37.26 123.61,16.06 118.21,18.16" fill="#1D9CCB" stroke="#1D9CCB" stroke-width="0.5" stroke-linejoin="round"/>
  <polygon points="22.61,115.95 41.52,123.33 41.52,85.69 22.61,78.32" fill="#23B5C9" stroke="#1D9CCB" stroke-width="0.5" stroke-linejoin="round"/>
  <polygon points="158.48,123.33 177.39,115.95 177.39,78.32 158.48,85.69" fill="#4C196E" stroke="#1D9CCB" stroke-width="0.5" stroke-linejoin="round"/>
  <polygon points="23.49,74.30 42.41,81.67 55.90,45.91 41.92,40.46" fill="#28CDC5" stroke="#1D9CCB" stroke-width="0.5" stroke-linejoin="round"/>
  <polygon points="157.59,81.67 176.51,74.30 158.08,40.46 144.10,45.91" fill="#3A68BB" stroke="#1D9CCB" stroke-width="0.5" stroke-linejoin="round"/>
  <polygon points="58.40,157.37 82.61,160.51 77.67,131.94 44.91,127.68" fill="#3A68BB" stroke="#1D9CCB" stroke-width="0.5" stroke-linejoin="round"/>
  <polygon points="117.39,160.51 141.60,157.37 155.09,127.68 122.33,131.94" fill="#4C196E" stroke="#1D9CCB" stroke-width="0.5" stroke-linejoin="round"/>
  <polygon points="59.80,43.04 84.01,46.18 92.60,19.70 83.26,18.49" fill="#4DE0B4" stroke="#1D9CCB" stroke-width="0.5" stroke-linejoin="round"/>
  <polygon points="115.99,46.18 140.20,43.04 116.74,18.49 107.40,19.70" fill="#23B5C9" stroke="#1D9CCB" stroke-width="0.5" stroke-linejoin="round"/>
  <polygon points="86.02,46.30 113.98,46.30 105.39,19.83 94.61,19.83" fill="#28CDC5" stroke="#1D9CCB" stroke-width="0.5" stroke-linejoin="round"/>
  <polygon points="86.02,160.72 113.98,160.72 118.92,132.14 81.08,132.14" fill="#484DA6" stroke="#1D9CCB" stroke-width="0.5" stroke-linejoin="round"/>
  <polygon points="44.91,82.23 77.67,86.49 82.61,49.62 58.40,46.47" fill="#4DE0B4" stroke="#1D9CCB" stroke-width="0.5" stroke-linejoin="round"/>
  <polygon points="122.33,86.49 155.09,82.23 141.60,46.47 117.39,49.62" fill="#1D9CCB" stroke="#1D9CCB" stroke-width="0.5" stroke-linejoin="round"/>
  <polygon points="44.39,123.97 77.16,128.23 77.16,90.59 44.39,86.34" fill="#23B5C9" stroke="#1D9CCB" stroke-width="0.5" stroke-linejoin="round"/>
  <polygon points="122.84,128.23 155.61,123.97 155.61,86.34 122.84,90.59" fill="#3A68BB" stroke="#1D9CCB" stroke-width="0.5" stroke-linejoin="round"/>
  <polygon points="81.08,86.69 118.92,86.69 113.98,49.82 86.02,49.82" fill="#28CDC5" stroke="#1D9CCB" stroke-width="0.5" stroke-linejoin="round"/>
  <polygon points="81.08,128.46 118.92,128.46 118.92,90.83 81.08,90.83" fill="#1D9CCB" stroke="#1D9CCB" stroke-width="0.5" stroke-linejoin="round"/>
  <path transform="translate(14.798 207) scale(0.029000 -0.029000)" fill="#1D83CA" d="M278 -8C376 -8 449 58 477 121V0H530V773H477V407C447 472 389 531 286 531C148 531 43 423 43 262V254C43 88 145 -8 278 -8ZM283 37C179 37 98 113 98 256V264C98 405 179 486 291 486C400 486 478 410 478 266V258C478 114 389 37 283 37Z"/>
  <path transform="translate(32.546 207) scale(0.029000 -0.029000)" fill="#1D83CA" d="M137 -182H192L482 523H428L261 106L82 523H25L232 45Z"/>
  <path transform="translate(47.278 207) scale(0.029000 -0.029000)" fill="#1D83CA" d="M239 -9C358 -9 423 55 423 143C423 245 359 272 247 292C140 311 104 333 104 393C104 449 153 486 226 486C302 486 345 456 358 389H409C395 492 321 531 227 531C139 531 55 480 55 391C55 301 107 268 235 245C333 227 372 206 372 139C372 76 327 36 239 36C142 36 98 85 89 156H38C45 56 116 -9 239 -9Z"/>
  <path transform="translate(60.763 207) scale(0.029000 -0.029000)" fill="#1D83CA" d="M295 -8C436 -8 548 100 548 258V266C548 425 437 531 296 531C156 531 43 422 43 265V257C43 103 153 -8 295 -8ZM296 37C182 37 98 123 98 257V265C98 401 184 486 296 486C407 486 493 403 493 265V257C493 122 408 37 296 37Z"/>
  <path transform="translate(77.902 207) scale(0.029000 -0.029000)" fill="#1D83CA" d="M82 0H135V317C135 427 221 485 308 485C401 485 453 436 453 325V0H506V322C506 471 431 531 320 531C227 531 159 478 135 421V523H82Z"/>
  <path transform="translate(94.809 207) scale(0.029000 -0.029000)" fill="#4DE0B4" d="M239 -9C358 -9 423 55 423 143C423 245 359 272 247 292C140 311 104 333 104 393C104 449 153 486 226 486C302 486 345 456 358 389H409C395 492 321 531 227 531C139 531 55 480 55 391C55 301 107 268 235 245C333 227 372 206 372 139C372 76 327 36 239 36C142 36 98 85 89 156H38C45 56 116 -9 239 -9Z"/>
  <path transform="translate(108.294 207) scale(0.029000 -0.029000)" fill="#4DE0B4" d="M82 -182H135V119C163 55 230 -8 334 -8C469 -8 569 95 569 259V267C569 430 466 531 334 531C242 531 165 469 135 401V523H82ZM330 37C221 37 134 114 134 257V265C134 409 227 486 329 486C429 486 514 409 514 265V257C514 117 440 37 330 37Z"/>
  <path transform="translate(126.042 207) scale(0.029000 -0.029000)" fill="#4DE0B4" d="M82 0H135V317C135 427 221 485 308 485C401 485 453 436 453 325V0H506V322C506 471 431 531 320 531C227 531 159 478 135 421V773H82Z"/>
  <path transform="translate(142.949 207) scale(0.029000 -0.029000)" fill="#4DE0B4" d="M291 -8C403 -8 486 46 508 146H455C437 73 378 37 291 37C167 37 100 117 98 257H512V276C512 449 409 531 283 531C143 531 43 422 43 264V256C43 99 140 -8 291 -8ZM100 300C110 414 182 486 283 486C385 486 452 427 457 300Z"/>
  <path transform="translate(159.015 207) scale(0.029000 -0.029000)" fill="#4DE0B4" d="M82 0H135V290C135 429 211 476 312 480V530C216 527 164 477 135 413V523H82Z"/>
  <path transform="translate(169.107 207) scale(0.029000 -0.029000)" fill="#4DE0B4" d="M291 -8C403 -8 486 46 508 146H455C437 73 378 37 291 37C167 37 100 117 98 257H512V276C512 449 409 531 283 531C143 531 43 422 43 264V256C43 99 140 -8 291 -8ZM100 300C110 414 182 486 283 486C385 486 452 427 457 300Z"/>
</svg>
